<?xml version="1.0" encoding="UTF-8"?>
<svg id="Layer_2" data-name="Layer 2" xmlns="http://www.w3.org/2000/svg" viewBox="0 0 220.87 220.87">
  <defs>
    <style>
      .cls-1 {
        fill: #f9b800;
      }

      .cls-1, .cls-2 {
        stroke-width: 0px;
      }

      .cls-2 {
        fill: #fff;
      }
    </style>
  </defs>
  <g id="logo">
    <g id="negativo_vers_solo" data-name="negativo vers solo">
      <rect class="cls-2" width="220.87" height="220.87"/>
      <g id="vers_solo_line" data-name="vers solo line">
        <g>
          <path class="cls-1" d="M63.85,177.98l.84,2.74s-1.36.65-3.38,1.69c-2.86,1.46-7.99,5.56-7.99,5.56,0,0,46.09-71.71,56.05-90.76,7.17-13.7,15.46-29.86,20.2-37.32,6.15-9.71,16.82-21.8,37.94-25.49,3.88-.68,6.7.89,7.15.82,0,0-4.1-.77-9.26,3.79-13.61,12.02-38.94,39.75-48.42,56.42-9.53,16.74-53.12,82.56-53.12,82.56Z"/>
          <path class="cls-1" d="M88.34,90.31c-23.26,0-42.12,15.87-42.12,35.45s18.86,35.45,42.12,35.45c15.88,0,27.39-7.39,34.57-18.31.28-.43,0,11.96,0,15.49,0,1.36-.68,8.99-1.05,10.73-1.09,5.12-2.59,7.41-1.67,10.17,1.8,5.41,10.59,4.43,10.59-.11,0-1.45-.21-28.7-.21-43.72,0-3.3.01-16.34-.1-19.7-.15-4.57,1.02-6.31,5.71-3.61.8.46,1.59-9.43-1.5-8.46-3.43,1.08-12.28,1.17-13.08.3-7.71-8.32-19.73-13.68-33.24-13.68ZM75.52,153.68c-13.9-6.26-17.76-23-8.61-37.4,9.15-14.4,27.84-21,41.74-14.74,13.9,6.26,17.76,23,8.61,37.4-9.15,14.4-27.84,21-41.74,14.75Z"/>
        </g>
        <rect class="cls-1" x="53.32" y="189.71" width="33.27" height=".12"/>
      </g>
    </g>
  </g>
</svg>