<?xml version="1.0" encoding="UTF-8"?>
<svg id="Layer_2" data-name="Layer 2" xmlns="http://www.w3.org/2000/svg" viewBox="0 0 128.44 155.61">
  <defs>
    <style>
      .cls-1 {
        fill: #fff;
        stroke-width: 0px;
      }
    </style>
  </defs>
  <g id="Layer_1-2" data-name="Layer 1">
    <g id="vers_solo_line" data-name="vers solo line">
      <g>
        <path class="cls-1" d="M17.63,143.76l.84,2.74s-1.36.65-3.38,1.69c-2.86,1.46-7.99,5.56-7.99,5.56,0,0,46.09-71.71,56.05-90.76,7.17-13.7,15.46-29.86,20.2-37.32C89.5,15.96,100.17,3.87,121.29.17c3.88-.68,6.7.89,7.15.82,0,0-4.1-.77-9.26,3.79-13.61,12.02-38.94,39.75-48.42,56.42-9.53,16.74-53.12,82.56-53.12,82.56Z"/>
        <path class="cls-1" d="M42.12,56.1C18.86,56.1,0,71.97,0,91.54s18.86,35.45,42.12,35.45c15.88,0,27.39-7.39,34.57-18.31.28-.43,0,11.96,0,15.49,0,1.36-.68,8.99-1.05,10.73-1.09,5.12-2.59,7.41-1.67,10.17,1.8,5.41,10.59,4.43,10.59-.11,0-1.45-.21-28.7-.21-43.72,0-3.3.01-16.34-.1-19.7-.15-4.57,1.02-6.31,5.71-3.61.8.46,1.59-9.43-1.5-8.46-3.43,1.08-12.28,1.17-13.08.3-7.71-8.32-19.73-13.68-33.24-13.68ZM29.3,119.47c-13.9-6.26-17.76-23-8.61-37.4,9.15-14.4,27.84-21,41.74-14.74s17.76,23,8.61,37.4c-9.15,14.4-27.84,21-41.74,14.75Z"/>
      </g>
      <rect class="cls-1" x="7.1" y="154.17" width="33.27" height="1.44"/>
    </g>
  </g>
</svg>